<?xml version="1.0" encoding="UTF-8" standalone="no"?>
<!-- Created with Inkscape (http://www.inkscape.org/) -->

<svg
   width="48"
   height="48"
   viewBox="0 0 12.7 12.7"
   version="1.1"
   id="svg7750"
   inkscape:version="1.1.2 (b8e25be833, 2022-02-05)"
   sodipodi:docname="logo.svg"
   xmlns:inkscape="http://www.inkscape.org/namespaces/inkscape"
   xmlns:sodipodi="http://sodipodi.sourceforge.net/DTD/sodipodi-0.dtd"
   xmlns="http://www.w3.org/2000/svg"
   xmlns:svg="http://www.w3.org/2000/svg">
  <sodipodi:namedview
     id="namedview7752"
     pagecolor="#ffffff"
     bordercolor="#666666"
     borderopacity="1.0"
     inkscape:pageshadow="2"
     inkscape:pageopacity="1"
     inkscape:pagecheckerboard="0"
     inkscape:document-units="mm"
     showgrid="false"
     inkscape:zoom="8.042923"
     inkscape:cx="11.189962"
     inkscape:cy="24.244917"
     inkscape:window-width="1920"
     inkscape:window-height="991"
     inkscape:window-x="-9"
     inkscape:window-y="-9"
     inkscape:window-maximized="1"
     inkscape:current-layer="layer1"
     units="px"
     showborder="true"
     inkscape:showpageshadow="false"
     borderlayer="false" />
  <defs
     id="defs7747" />
  <g
     inkscape:label="레이어 1"
     inkscape:groupmode="layer"
     id="layer1">
    <rect
       style="fill:#f9f9f9;fill-rule:evenodd;stroke-width:1.00405"
       id="rect8418"
       width="12.8"
       height="12.8"
       x="3.1789146e-08"
       y="-0.030072538" />
    <rect
       style="fill:#f9f9f9;fill-rule:evenodd;stroke-width:1.00012"
       id="rect8420"
       width="0.69082469"
       height="1.348753"
       x="9.8689251"
       y="8.1254148" />
    <g
       id="g8394"
       transform="translate(0.00981559,0.07632408)">
      <path
         style="fill:#d5e5ff;fill-opacity:1;fill-rule:evenodd;stroke-width:0.0649507"
         d="M 9.8591175,7.5199301 C 10.004045,7.4868201 10.303709,7.3731532 10.409024,7.3113383 10.75463,7.1084834 11.016386,6.8124176 11.176516,6.4432373 11.345689,6.0532168 11.398311,5.6497191 11.334019,5.2355616 11.253349,4.7158839 10.978207,4.2428661 10.588639,3.9541205 10.456444,3.8561375 10.240896,3.7450223 10.104108,3.704343 L 9.9762345,3.666314 9.9244555,3.4762968 C 9.8182565,3.0864715 9.7090358,2.8407587 9.5053538,2.5334194 8.8198641,1.4990629 7.6214162,1.080931 6.5357183,1.4973293 6.2648728,1.6012076 6.0360784,1.7365995 5.8071725,1.9284563 5.6228907,2.0829115 5.3341743,2.4014991 5.2800829,2.5100809 5.26898,2.5323687 5.2534108,2.5273244 5.1879061,2.4802207 4.9342807,2.2978389 4.5839361,2.1981455 4.246239,2.2122627 3.7382124,2.2334997 3.2737385,2.4976079 2.9549885,2.9464908 2.8815046,3.0499748 2.7340733,3.3154894 2.7340733,3.344345 c 0,0.0051 -0.010448,0.035099 -0.023227,0.066664 -0.030239,0.074712 -0.074048,0.2253397 -0.074048,0.2545822 0,0.0126 -0.041948,0.038418 -0.093219,0.057372 -0.57953,0.2142544 -1.0218867,0.7672035 -1.1557528,1.4447013 -0.02567,0.1299244 -0.030288,0.2122583 -0.025734,0.4588312 0.00305,0.1652723 0.01317,0.3250811 0.022486,0.35513 0.00934,0.03005 0.033509,0.1161004 0.053762,0.1912244 0.072826,0.2700954 0.2178736,0.536648 0.4121861,0.7574579 0.1956481,0.2223283 0.2628292,0.2745181 0.5836213,0.4533903 0.3030431,0.1689736 -0.044288,0.1553018 3.8878163,0.1530418 1.9097643,-0.00114 3.5014803,-0.00866 3.5371453,-0.016816 z"
         id="path7607" />
      <path
         style="fill:#d5e5ff;fill-rule:evenodd;stroke-width:3.78"
         id="path7864"
         sodipodi:type="arc"
         sodipodi:cx="3.5660341"
         sodipodi:cy="8.9212217"
         sodipodi:rx="0.40939647"
         sodipodi:ry="0.40939647"
         sodipodi:start="5.5050509"
         sodipodi:end="5.4925747"
         sodipodi:arc-type="slice"
         d="m 3.8576162,8.6338451 a 0.40939647,0.40939647 0 0 1 -0.0033,0.578061 0.40939647,0.40939647 0 0 1 -0.5780685,-0.00149 0.40939647,0.40939647 0 0 1 -3.086e-4,-0.5780703 0.40939647,0.40939647 0 0 1 0.5780665,-0.00211 l -0.2879741,0.290992 z" />
      <path
         style="fill:#d5e5ff;fill-rule:evenodd;stroke-width:3.78"
         id="path7864-6"
         sodipodi:type="arc"
         sodipodi:cx="6.0505161"
         sodipodi:cy="10.947783"
         sodipodi:rx="0.40939647"
         sodipodi:ry="0.40939647"
         sodipodi:start="5.5050509"
         sodipodi:end="5.4925747"
         sodipodi:arc-type="slice"
         d="m 6.3420983,10.660407 a 0.40939647,0.40939647 0 0 1 -0.0033,0.578061 0.40939647,0.40939647 0 0 1 -0.5780685,-0.0015 0.40939647,0.40939647 0 0 1 -3.086e-4,-0.57807 0.40939647,0.40939647 0 0 1 0.5780666,-0.0021 l -0.2879742,0.290992 z" />
      <path
         style="fill:#d5e5ff;fill-rule:evenodd;stroke-width:3.78"
         id="path7864-6-6"
         sodipodi:type="arc"
         sodipodi:cx="9.0709429"
         sodipodi:cy="9.7968006"
         sodipodi:rx="0.40939647"
         sodipodi:ry="0.40939647"
         sodipodi:start="5.5050509"
         sodipodi:end="5.4925747"
         sodipodi:arc-type="slice"
         d="m 9.362525,9.509424 a 0.40939647,0.40939647 0 0 1 -0.0033,0.578061 0.40939647,0.40939647 0 0 1 -0.5780685,-0.0015 0.40939647,0.40939647 0 0 1 -3.086e-4,-0.5780708 0.40939647,0.40939647 0 0 1 0.5780665,-0.00211 l -0.2879741,0.290992 z" />
    </g>
    <path
       style="fill:#5599ff;fill-rule:evenodd;stroke-width:0.469978"
       d="M 11.625127,28.675429 C 10.046343,28.592235 9.9885834,28.578977 9.1384687,28.104662 7.9430833,27.437706 6.6296367,26.093163 6.0587512,24.952031 4.7859538,22.407859 4.9641611,19.323006 6.5190449,16.984127 c 0.7054085,-1.061086 1.4586907,-1.729898 2.6330746,-2.33781 0.8323522,-0.430862 0.8924735,-0.490697 1.0293895,-1.024475 0.235753,-0.919107 1.09514,-2.334271 1.896944,-3.123723 2.014489,-1.9834538 5.151549,-2.3682163 7.3697,-0.9038982 l 0.487385,0.3217482 0.246513,-0.3576668 c 0.135581,-0.196717 0.708449,-0.8145405 1.273037,-1.3729415 1.155482,-1.1428198 2.304229,-1.8490344 3.846659,-2.3648086 0.866099,-0.2896155 1.20358,-0.333724 2.610991,-0.3412551 1.362674,-0.00729 1.762666,0.037045 2.548824,0.2825216 3.336807,1.0419127 5.812101,3.6579349 6.915827,7.3090144 l 0.343073,1.134875 0.656721,0.207013 c 1.473128,0.464362 2.954028,1.836018 3.746069,3.469723 1.064518,2.195735 1.023345,4.94721 -0.107569,7.188482 -0.469603,0.93067 -1.896145,2.419493 -2.720504,2.839278 -1.541249,0.784846 -0.713252,0.737641 -13.97362,0.796646 -6.644057,0.02956 -12.807452,0.01542 -13.696432,-0.03142 z"
       id="path8708"
       transform="scale(0.26458333)" />
    <path
       style="fill:#5599ff;fill-rule:evenodd;stroke-width:0.469978"
       d="m 12.793019,35.317953 c -0.470713,-0.266046 -0.732727,-0.735523 -0.732727,-1.312903 0,-0.844653 0.634381,-1.494481 1.454737,-1.490162 0.440841,0.0023 0.980369,0.281328 0.935591,0.483822 -0.01879,0.08497 0.02434,0.118333 0.09585,0.07414 0.07298,-0.04511 0.216021,0.125475 0.326072,0.388863 0.238668,0.571214 0.09233,1.211313 -0.377931,1.653099 -0.38219,0.35905 -1.243767,0.461908 -1.701597,0.203144 z"
       id="path8747"
       transform="scale(0.26458333)" />
    <path
       style="fill:#5599ff;fill-rule:evenodd;stroke-width:0.469978"
       d="m 22.25559,42.98791 c -1.368592,-0.683689 -0.931325,-2.766214 0.580821,-2.766214 0.644501,0 1.082978,0.19429 0.989316,0.438368 -0.04133,0.107706 -0.0026,0.146485 0.105154,0.105155 0.235194,-0.09025 0.438369,0.337786 0.438369,0.92353 0,0.58715 -0.361889,1.100035 -0.949379,1.345504 -0.527532,0.220416 -0.639183,0.215972 -1.164281,-0.04634 z"
       id="path8786"
       transform="scale(0.26458333)" />
    <path
       style="fill:#5599ff;fill-rule:evenodd;stroke-width:0.469978"
       d="m 33.72775,38.669699 c -0.76814,-0.333931 -1.106536,-1.301081 -0.718073,-2.052284 0.27461,-0.531038 0.661924,-0.747371 1.338061,-0.747371 0.501628,0 0.657443,0.06061 0.965259,0.375506 0.830441,0.849529 0.567686,2.056572 -0.53896,2.475869 -0.443067,0.167873 -0.553745,0.162402 -1.046287,-0.05172 z"
       id="path8864"
       transform="scale(0.26458333)" />
    <path
       style="fill:#b3b3b3;fill-rule:evenodd;stroke-width:0.469978"
       d="M 0,24.120584 V -0.06216645 H 24.18275 48.365501 V 24.120584 48.303334 H 24.18275 0 Z m 23.943582,18.680945 c 1.357248,-1.243825 -0.174209,-3.36477 -1.816394,-2.515562 -0.665324,0.344051 -0.993061,1.472156 -0.626614,2.156868 0.228217,0.426427 0.875765,0.761863 1.471757,0.762385 0.425268,3.73e-4 0.617547,-0.07954 0.971251,-0.403691 z m 11.431757,-4.360421 c 0.756112,-0.756112 0.655281,-1.914334 -0.212727,-2.443545 -0.829411,-0.505677 -1.929891,-0.168226 -2.294106,0.703466 -0.259445,0.620938 -0.124097,1.228062 0.38792,1.740079 0.3618,0.3618 0.492973,0.412926 1.059456,0.412926 0.566484,0 0.697657,-0.05113 1.059457,-0.412926 z M 14.094903,35.449945 c 0.637426,-0.266333 0.949379,-0.750701 0.949379,-1.474096 0,-0.53341 -0.05613,-0.673464 -0.412926,-1.030256 -0.512017,-0.512016 -1.11914,-0.647364 -1.740079,-0.38792 -1.215594,0.507908 -1.248672,2.358908 -0.05146,2.87937 0.512131,0.222638 0.747328,0.225055 1.255082,0.0129 z m 24.195423,-7.030961 c 1.149089,-0.419365 1.55223,-0.67278 2.467413,-1.551021 2.931175,-2.812849 2.975199,-8.020275 0.09266,-10.960126 -0.62171,-0.634071 -1.037268,-0.922355 -1.958875,-1.358924 l -1.16976,-0.55412 -0.16342,-0.656418 C 36.685676,9.8331067 33.981663,6.8342257 30.727546,5.7626939 29.655334,5.4096302 29.371873,5.3676049 28.037071,5.3638103 26.39475,5.3591416 25.52221,5.5381037 24.146883,6.1617069 22.767752,6.7870341 21.246021,8.0364391 20.186874,9.4130394 L 19.92779,9.7497765 19.133447,9.3343727 C 18.696558,9.1059006 18.038025,8.8491148 17.67004,8.7637376 16.742068,8.5484366 15.035372,8.666172 14.190882,9.0037453 c -1.802147,0.7203842 -3.242181,2.2685337 -3.98958,4.2891137 -0.3154425,0.852793 -0.3247999,0.863082 -1.1874174,1.305495 -1.8147713,0.930748 -3.287762,2.940363 -3.7443222,5.108412 -0.5363571,2.546978 0.3319072,5.461374 2.1540532,7.230247 0.7543216,0.732267 2.1561843,1.585967 2.8204924,1.717609 0.280879,0.05566 6.481719,0.107331 13.779647,0.114823 l 13.268958,0.01362 z"
       id="path887"
       transform="scale(0.26458333)" />
    <path
       style="fill:#f2f2f2;fill-rule:evenodd;stroke-width:0.469978"
       d="M 0,24.120584 V -0.06216645 H 24.18275 48.365501 V 24.120584 48.303334 H 24.18275 0 Z m 23.815267,18.855164 c 0.464851,-0.380386 0.678316,-0.810427 0.678316,-1.366516 0,-0.469001 -0.06842,-0.614883 -0.482704,-1.029166 -0.433042,-0.43304 -0.547188,-0.482703 -1.109457,-0.482703 -0.491881,0 -0.708565,0.06884 -1.006943,0.319908 -0.782155,0.65814 -0.782623,2.014834 -8.7e-4,2.509808 0.491443,0.311159 1.567572,0.338414 1.921654,0.04867 z M 35.337275,38.50897 c 0.432861,-0.464216 0.594935,-0.811553 0.594935,-1.274991 0,-0.860892 -0.703319,-1.488268 -1.668421,-1.488268 -0.479325,0 -0.649298,0.06972 -1.037646,0.425611 -0.428874,0.393035 -0.464422,0.478156 -0.464422,1.112091 0,0.61001 0.0463,0.734253 0.415677,1.115348 0.375318,0.38723 0.485016,0.429846 1.129833,0.438923 0.624061,0.0088 0.75401,-0.03269 1.030044,-0.328714 z M 14.253888,35.418114 c 0.539274,-0.255904 0.790394,-0.734646 0.790394,-1.506832 0,-0.528225 -0.05511,-0.656862 -0.442071,-1.031921 -0.395459,-0.383295 -0.514453,-0.428472 -1.12855,-0.428472 -0.633935,0 -0.719055,0.03555 -1.11209,0.464422 -0.354596,0.386931 -0.425612,0.559114 -0.425612,1.031921 0,0.728033 0.254191,1.211646 0.770627,1.466161 0.525387,0.258924 1.008499,0.260399 1.547302,0.0047 z m 23.897757,-6.888027 c 1.245528,-0.473398 1.863153,-0.859432 2.676805,-1.673084 2.86647,-2.86647 2.922742,-7.911273 0.12137,-10.880875 -0.637184,-0.675448 -1.060603,-0.9873 -1.970761,-1.451483 l -1.159217,-0.591203 -0.39351,-1.201489 C 36.047351,8.5215672 32.506479,5.5501489 28.596569,5.3222189 25.775588,5.1577686 23.397285,6.0756155 21.252188,8.1566003 20.871747,8.5256701 20.415161,9.0080535 20.237553,9.2285634 L 19.914628,9.6294905 18.940367,9.1739794 C 18.079481,8.7714766 17.826936,8.7123622 16.770189,8.6659977 14.655656,8.5732231 13.422156,9.031227 11.98176,10.443964 c -0.751424,0.736995 -0.989575,1.082659 -1.554499,2.256274 l -0.6671278,1.385946 -0.917946,0.541215 c -1.6867778,0.994515 -3.0487318,2.820812 -3.5524156,4.763574 -0.3943215,1.520939 -0.1921363,3.692574 0.4866985,5.227539 0.8243945,1.864103 2.7526022,3.655653 4.3566619,4.047893 0.205149,0.05016 6.443553,0.09691 13.863119,0.103873 13.279433,0.01247 13.500511,0.0087 14.155394,-0.240191 z"
       id="path963"
       transform="scale(0.26458333)" />
  </g>
</svg>
